<svg xmlns="http://www.w3.org/2000/svg" width="28" height="28" viewBox="0 0 28 28">
  <g fill="#414A52">
    <path d="M26.1143111,8.30582222 C24.6802667,4.96248889 22.2433778,2.53097778 18.8721333,1.09315556 C17.1871556,0.374533333 15.4218667,0.00746666667 13.5776444,0.00746666667 C11.7337333,0.00746666667 9.98146667,0.371066667 8.29835556,1.09315556 C4.95502222,2.52715556 2.50733333,4.95711111 1.07075556,8.30582222 C0.350888889,9.98351111 0,11.7411556 0,13.5850667 C0,15.4293333 0.350888889,17.2015556 1.07075556,18.8796 C2.50733333,22.2283111 4.95533333,24.6728444 8.29835556,26.1072 C9.98177778,26.8292889 11.7336889,27.1925333 13.5776444,27.1925333 C15.4216,27.1925333 17.1871556,26.8254667 18.8718667,26.1072 C22.2431111,24.6693333 24.68,22.2226222 26.1143556,18.8796 C26.8364,17.1961778 27.2,15.4293333 27.2,13.5850667 C27.2,11.7411556 26.8367111,9.9892 26.1143111,8.30582222 Z M23.9432889,19.5934667 C22.8756889,21.4243556 21.4131111,22.8768444 19.5710667,23.9507556 C17.7401778,25.0183556 15.7340889,25.5567556 13.5779556,25.5567556 C11.9570667,25.5567556 10.4104,25.2445778 8.93795556,24.6049778 C7.46555556,23.9656889 6.19426667,23.1252444 5.1308,22.0620889 C4.06733333,20.9986222 3.22088889,19.7149333 2.58795556,18.24 C1.95688889,16.7704444 1.65106667,15.2063111 1.65106667,13.5851111 C1.65106667,11.4286667 2.18088889,9.43275556 3.24248889,7.60693333 C4.30786667,5.77444444 5.77075556,4.3204 7.59977778,3.2496 C9.42848889,2.17884444 11.4215556,1.64328889 13.5776444,1.64328889 C15.7340889,1.64328889 17.7398222,2.182 19.5707556,3.2496 C21.4128,4.32355556 22.8722222,5.77755556 23.9429778,7.60688889 C25.0137333,9.43591111 25.5489778,11.4286667 25.5489778,13.5850667 C25.5489778,15.7415556 25.0172444,17.7510667 23.9432889,19.5934667 Z"/>
    <path d="M14.4402667,13.4661333 L14.4402667,5.76262222 C14.4402667,5.30164444 14.0386222,4.92982222 13.5776,4.92982222 C13.1464444,4.92982222 12.7596889,5.30164444 12.7596889,5.76262222 L12.7596889,13.5850667 C12.7596889,13.6 12.7895111,13.6596444 12.7895111,13.7040889 C12.7596889,13.9718222 12.8342667,14.1948889 13.0125778,14.3735111 L17.4593778,18.82 C17.7569333,19.1175556 18.3070667,19.1175556 18.6044,18.82 C18.9463556,18.478 18.9238667,17.9817778 18.6044,17.6600444 L14.4402667,13.4661333 Z"/>
  </g>
</svg>
