<svg xmlns="http://www.w3.org/2000/svg" width="868" height="375" viewBox="0 0 868 375">
  <path fill="#A2DDF3" fill-rule="evenodd" d="M0,258.790038 C134.679179,209.566136 251.387165,215.833476 350.12396,277.59206 C498.229153,370.229937 680.436827,454.476203 906.686243,371.576069 C1132.93566,288.675935 1149.18338,164.439425 1137.92051,25.2762945 C1131.32614,-56.2032286 1294.62215,73.4942742 1213.414,212.426745 C1132.20584,351.359216 1138.66022,528.622354 1039.3138,577.914184 C939.967381,627.206015 715.326234,573.699898 585.19406,579.395741 C432.524283,586.078048 251.311986,599.015755 159.850729,567.357322 C40.5627283,526.06693 33.752747,436.169917 32.8033113,435.096598 C28.5677034,430.308322 17.6332663,371.539469 0,258.790038 Z" opacity=".932" transform="translate(-197.114 -68)"/>
</svg>
