<svg xmlns="http://www.w3.org/2000/svg" xmlns:xlink="http://www.w3.org/1999/xlink" width="868" height="375" viewBox="0 0 868 375">
  <defs>
    <rect id="yellow-1st-schedule-wave-a" width="864" height="4400" x="237" rx="4"/>
  </defs>
  <g fill="none" fill-rule="evenodd" transform="matrix(-1 0 0 1 1103 -731)">
    <use fill="#FFF" xlink:href="#yellow-1st-schedule-wave-a"/>
    <path fill="#FECE40" d="M45.8300671,816.17625 C129.686349,790.314531 221.143823,805.122189 320.20249,860.599223 C468.79049,943.814775 623.296603,1011.88383 829.631127,936.27871 C1035.96565,860.673589 1131.41993,725.448359 1121.14844,598.53125 C1115.13452,524.221729 1214.21804,454.385367 1256.64308,737.709574 C1259.57005,757.256566 1244.49487,814.604909 1211.41754,909.754605 C1146.21709,1018.57686 1054.37687,1075.1734 935.896877,1079.54422 C758.176891,1086.10045 674.043803,1014.32441 514.734375,999.289062 C408.52809,989.265501 307.683038,996.473834 212.199219,1020.91406 C75.1939125,1031.71295 4.75986836,1034.92893 0.897086442,1030.56201 C-2.96569548,1026.1951 12.0119647,954.733175 45.8300671,816.17625 Z" opacity=".9"/>
    <rect width="519.18" height="66.11" x="212.043" y="943.162"/>
  </g>
</svg>
