<svg xmlns="http://www.w3.org/2000/svg" xmlns:xlink="http://www.w3.org/1999/xlink" width="1500" height="328" viewBox="0 0 1500 328">
  <defs>
    <path id="yellow-wave-a" d="M199.498047,279.275 C253.160156,252.776562 366.841797,205.21875 541.662891,297.649609 C716.483984,390.080469 866.455859,459.760547 1087.56211,378.744922 C1308.66836,297.729297 1349.33555,164.657813 1321.26563,33.3128906 C1307.10311,-32.9564068 1632.90828,-9.49324021 1662.28125,191.328125 C1668.13133,231.324794 1731.13477,402.896248 1589.60156,545.679687 C1582.47096,552.873282 1527.73919,537.230053 1425.40625,498.75 L1201.43555,532.262891 L722.078125,518.34375 L371.296875,479.775391 C260.903646,484.454818 203.63737,484.454818 199.498047,479.775391 C197.858059,477.921415 1.30140819,472.202439 0.9609375,450.835547 C0.442061692,418.272499 145.835937,305.773438 199.498047,279.275 Z"/>
  </defs>
  <g fill="none" fill-rule="evenodd" transform="translate(-76 -122)">
    <use fill="#FECE40" opacity=".921" xlink:href="#yellow-wave-a"/>
  </g>
</svg>
