<svg xmlns="http://www.w3.org/2000/svg" xmlns:xlink="http://www.w3.org/1999/xlink" width="1499" height="312" viewBox="0 0 1499 312">
  <defs>
    <rect id="yellow-and-red-about-wave-a" width="1500" height="312"/>
  </defs>
  <g fill="none" fill-rule="evenodd">
    <mask id="yellow-and-red-about-wave-b" fill="#fff">
      <use xlink:href="#yellow-and-red-about-wave-a"/>
    </mask>
    <use fill="#FFF" xlink:href="#yellow-and-red-about-wave-a"/>
    <path fill="#E27268" d="M104.793393,224.003845 C158.455502,197.505408 244.606674,152.839392 463.590268,240.808533 C682.573862,328.777673 922.51137,331.453125 1143.61762,250.4375 C1364.72387,169.421875 1432.86801,59.2007812 1467.2977,-90.9320313 C1501.72739,-241.064844 1572.90871,-141.49324 1602.28168,59.328125 C1608.13176,99.3247945 1671.1352,270.896248 1529.602,413.679687 C1522.47139,420.873282 1467.73962,405.230053 1365.40668,366.75 L1141.43598,400.262891 L662.078558,386.34375 L311.297308,347.775391 C200.904079,352.454818 143.637802,352.454818 139.49848,347.775391 C137.858491,345.921415 -58.6981591,340.202439 -59.0386298,318.835547 C-59.5575056,286.272499 51.1312836,250.502283 104.793393,224.003845 Z" mask="url(#yellow-and-red-about-wave-b)" opacity=".921" transform="rotate(180 781.115 126.025)"/>
    <path fill="#FECE40" d="M119.498047,162.275 C173.160156,135.776562 286.841797,88.21875 461.662891,180.649609 C636.483984,273.080469 902.510937,346.453125 1123.61719,265.4375 C1344.72344,184.421875 1412.86758,74.2007812 1447.29727,-75.9320313 C1481.72695,-226.064844 1552.90828,-126.49324 1582.28125,74.328125 C1588.13133,114.324794 1651.13477,285.896248 1509.60156,428.679687 C1502.47096,435.873282 1447.73919,420.230053 1345.40625,381.75 L1121.43555,415.262891 L642.078125,401.34375 L291.296875,362.775391 C180.903646,367.454818 123.63737,367.454818 119.498047,362.775391 C117.858059,360.921415 -78.6985918,355.202439 -79.0390625,333.835547 C-79.5579383,301.272499 65.8359375,188.773438 119.498047,162.275 Z" mask="url(#yellow-and-red-about-wave-b)" opacity=".921"/>
  </g>
</svg>
