<svg xmlns="http://www.w3.org/2000/svg" xmlns:xlink="http://www.w3.org/1999/xlink" width="1200" height="536" viewBox="0 0 1200 536">
  <defs>
    <rect id="yellow-tablet-wave-a" width="1200" height="536"/>
  </defs>
  <g fill="none" fill-rule="evenodd">
    <mask id="yellow-tablet-wave-b" fill="#fff">
      <use xlink:href="#yellow-tablet-wave-a"/>
    </mask>
    <use fill="#FFF" xlink:href="#yellow-tablet-wave-a"/>
    <path fill="#FECE40" d="M-38.4816058,326.688352 C69.7631515,278.815545 180.426234,284.754572 293.507642,344.505433 C463.129754,434.131725 608.641635,501.697546 823.172435,423.140125 C1037.70324,344.582703 1077.16103,215.548918 1049.92587,88.189307 C1036.18454,23.9307746 1242.8961,108.702227 1271.39556,303.430204 C1277.06734,342.183765 1302.89354,445.010787 1232.10938,585.851562 C1228.50453,593.024201 1203.41338,599.737743 1156.83594,605.992188 L934.070313,605.992188 L208,605.992188 L32.3046875,597.757812 C-10.8699506,551.193442 -34.4653817,525.642536 -38.4816058,521.105093 C-40.0728226,519.307371 -200.668105,485.308909 -200.99845,464.590338 C-201.33408,443.540333 -147.161799,397.573004 -38.4816058,326.688352 Z" mask="url(#yellow-tablet-wave-b)" opacity=".921"/>
  </g>
</svg>
